D:\school\WTK\thesis\model\3dpredictsim\Results\debug_batch\Pog_s1_tmt_aCst_d05_k500_ig24_pas_GRF.mot
nRows=17
nColumns=19

name D:\school\WTK\thesis\model\3dpredictsim\Results\debug_batch\Pog_s1_tmt_aCst_d05_k500_ig24_pas_GRF.mot
datacolumns 19
datarows 17
range 0.5618105455 0.7415899201
endheader
time 	ground_force_vx	ground_force_vy	ground_force_vz	ground_force_px	ground_force_py	ground_force_pz	1_ground_force_vx	1_ground_force_vy	1_ground_force_vz	1_ground_force_px	1_ground_force_py	1_ground_force_pz	ground_torque_x	ground_torque_y	ground_torque_z	1_ground_torque_x	1_ground_torque_y	1_ground_torque_z
        0.5618105455	       96.1173791809	      482.2879100650	        5.0274649692	        0.3800186098	        0.0000000000	        0.0340065008	      -86.5566842569	       82.8381248940	      -40.8459547933	        0.8775520976	        0.0000000000	       -0.0372499862	        0.0000000000	        0.0000000000	        0.0000000000	        0.0000000000	        0.0000000000	        0.0000000000	
        0.5730467564	       77.0198968666	      400.4696940938	       10.1713807261	        0.3841581881	        0.0000000000	        0.0327418708	      -81.2995610856	      182.5171037524	      -77.3271561783	        0.8833763824	        0.0000000000	       -0.0353893287	        0.0000000000	        0.0000000000	        0.0000000000	        0.0000000000	        0.0000000000	        0.0000000000	
        0.5842829673	       53.7136237986	      305.9262333180	        7.7868146826	        0.3908871801	        0.0000000000	        0.0300631892	      -41.2585398537	      337.8902841041	      -16.8209472337	        0.8870315367	        0.0000000000	       -0.0334330715	        0.0000000000	        0.0000000000	        0.0000000000	        0.0000000000	        0.0000000000	        0.0000000000	
        0.5955191782	       27.0346156953	      206.1793792824	        6.5605730095	        0.4028815094	        0.0000000000	        0.0246434183	      -46.5192821504	      496.9949328178	        1.2427056564	        0.8913056748	        0.0000000000	       -0.0340378129	        0.0000000000	        0.0000000000	        0.0000000000	        0.0000000000	        0.0000000000	        0.0000000000	
        0.6067553891	        7.1953006373	      143.4260545241	       10.4513419617	        0.4156265725	        0.0000000000	        0.0181085221	      -83.6637269849	      674.3422062784	        8.6895924231	        0.8995828247	        0.0000000000	       -0.0365401682	        0.0000000000	        0.0000000000	        0.0000000000	        0.0000000000	        0.0000000000	        0.0000000000	
        0.6179916000	        1.3874456437	      112.2677422283	       11.1847277296	        0.4155699462	        0.0000000000	        0.0183908937	     -107.7267525887	      793.2863840454	       11.9925928548	        0.9056311477	        0.0000000000	       -0.0382734304	        0.0000000000	        0.0000000000	        0.0000000000	        0.0000000000	        0.0000000000	        0.0000000000	
        0.6292278110	       -1.7823873774	       73.4121258052	       10.3354808414	        0.4161216676	        0.0000000000	        0.0184606664	     -113.0235906906	      837.6903074755	       13.0201836468	        0.9097940934	        0.0000000000	       -0.0393270063	        0.0000000000	        0.0000000000	        0.0000000000	        0.0000000000	        0.0000000000	        0.0000000000	
        0.6404640219	       -7.8202053677	       30.2620568623	        5.8221957681	        0.4158196339	        0.0000000000	        0.0183629527	     -108.3484219918	      835.4181004731	       13.0026895958	        0.9130264826	        0.0000000000	       -0.0399561735	        0.0000000000	        0.0000000000	        0.0000000000	        0.0000000000	        0.0000000000	        0.0000000000	
        0.6517002328	        0.0859040618	       -0.0843653474	       -0.0008291812	        0.0000000000	        0.0000000000	        0.0000000000	      -99.1371140534	      817.2024249163	       13.4250435340	        0.9162582828	        0.0000000000	       -0.0402871870	        0.0000000000	        0.0000000000	        0.0000000000	        0.0000000000	        0.0000000000	        0.0000000000	
        0.6629364437	        0.0001524840	       -0.0001225010	        0.0000095993	        0.0000000000	        0.0000000000	        0.0000000000	      -87.0517586503	      788.5265058800	       14.1635046703	        0.9196670798	        0.0000000000	       -0.0404297261	        0.0000000000	        0.0000000000	        0.0000000000	        0.0000000000	        0.0000000000	        0.0000000000	
        0.6741726546	        0.0001039756	       -0.0000727249	        0.0000081569	        0.0000000000	        0.0000000000	        0.0000000000	      -75.4594631530	      754.4645320461	       14.5680908213	        0.9235172494	        0.0000000000	       -0.0404834178	        0.0000000000	        0.0000000000	        0.0000000000	        0.0000000000	        0.0000000000	        0.0000000000	
        0.6854088655	        0.0012703136	       -0.0007966454	        0.0001091537	        0.0000000000	        0.0000000000	        0.0000000000	      -66.0769120735	      723.8562468237	       14.7638628841	        0.9280646594	        0.0000000000	       -0.0404008932	        0.0000000000	        0.0000000000	        0.0000000000	        0.0000000000	        0.0000000000	        0.0000000000	
        0.6966450764	       -0.0000813471	        0.0000467895	       -0.0000073465	        0.0000000000	        0.0000000000	        0.0000000000	      -56.8490080637	      694.3462929663	       15.3305373175	        0.9327980157	        0.0000000000	       -0.0402969227	        0.0000000000	        0.0000000000	        0.0000000000	        0.0000000000	        0.0000000000	        0.0000000000	
        0.7078812873	       -0.0368018095	        0.0197212451	       -0.0034338770	        0.0000000000	        0.0000000000	        0.0000000000	      -48.1915989964	      666.4370753567	       15.9764025350	        0.9375313203	        0.0000000000	       -0.0402399713	        0.0000000000	        0.0000000000	        0.0000000000	        0.0000000000	        0.0000000000	        0.0000000000	
        0.7191174982	       -0.0239695722	        0.0120939214	       -0.0022972598	        0.0000000000	        0.0000000000	        0.0000000000	      -40.4925156920	      642.0103547575	       16.5072150152	        0.9422156410	        0.0000000000	       -0.0402290972	        0.0000000000	        0.0000000000	        0.0000000000	        0.0000000000	        0.0000000000	        0.0000000000	
        0.7303537091	       -0.0167239722	        0.0080141992	       -0.0016368503	        0.0000000000	        0.0000000000	        0.0000000000	      -33.9413458601	      621.5593106222	       17.0914902303	        0.9469044283	        0.0000000000	       -0.0402458149	        0.0000000000	        0.0000000000	        0.0000000000	        0.0000000000	        0.0000000000	        0.0000000000	
        0.7415899201	       -0.0151755988	        0.0069582863	       -0.0015049262	        0.0000000000	        0.0000000000	        0.0000000000	      -28.3258232306	      605.4119124076	       17.5348329001	        0.9518270099	        0.0000000000	       -0.0402705202	        0.0000000000	        0.0000000000	        0.0000000000	        0.0000000000	        0.0000000000	        0.0000000000	
